<svg width="51" height="51" viewBox="0 0 51 51" fill="none" xmlns="http://www.w3.org/2000/svg">
<path d="M25.5 3.1875L4.89365 17.6119C3.82434 18.3605 3.1875 19.5836 3.1875 20.8889V46.8125C3.1875 47.3648 3.63522 47.8125 4.1875 47.8125H16C16.5523 47.8125 17 47.3648 17 46.8125V35.875C17 33.6659 18.7909 31.875 21 31.875H30C32.2091 31.875 34 33.6659 34 35.875V46.8125C34 47.3648 34.4477 47.8125 35 47.8125H46.8125C47.3648 47.8125 47.8125 47.3648 47.8125 46.8125V20.8889C47.8125 19.5836 47.1757 18.3605 46.1063 17.6119L25.5 3.1875Z" stroke="#F1F4FF" stroke-width="3" stroke-linecap="round" stroke-linejoin="round"/>
</svg>
