<?xml version="1.0" encoding="UTF-8"?>
<svg id="Layer_1" xmlns="http://www.w3.org/2000/svg" viewBox="0 0 522.23 239.37">
  <defs>
    <style>
      .cls-1 {
        fill: #a3c5f9;
      }
    </style>
  </defs>
  <path class="cls-1" d="M122.98,239.3c-31.61,0-63.23,0-94.84,0-5.8,0-8.08-2.24-8.05-8.16.04-9.73.67-19.49.48-29.19-.65-32.31-.28-64.63-.44-96.94,0-1.18.61-2.78-.73-3.43-1.6-.78-2.35.96-3.33,1.79-2.28,1.93-4.48,3.96-6.76,5.9-2.81,2.39-5.58,2.39-7.61.08-2.43-2.76-2.3-5.55.7-8.13,11.04-9.52,22.12-19.01,33.23-28.45,10.92-9.27,21.87-18.5,32.85-27.71,14.7-12.32,29.44-24.6,44.15-36.91,2.39-2,4.73-4.05,7.05-6.12,2.9-2.59,6.46-2.77,9.43-.21,13.59,11.72,27.13,23.5,40.71,35.24,13.65,11.8,27.35,23.53,40.98,35.35,10.83,9.39,21.6,18.86,32.38,28.31,1.42,1.24,2.6,2.56,2.55,4.75-.05,2.18-.47,3.93-2.58,4.96-2.12,1.03-4.02.95-5.87-.66-2.82-2.45-5.73-4.8-8.61-7.18-.55-.45-1.01-1.28-1.86-.95-.89.34-.66,1.26-.64,1.96.3,11.48-.69,22.98.62,34.43.49,4.27-.58,8.45-.59,12.68-.04,15.99-.13,31.99-.14,47.98,0,10.71.11,21.42.14,32.13.02,6.71-1.69,8.41-8.37,8.41-31.61,0-63.23,0-94.84,0,0,.02,0,.04,0,.06ZM123.34,228.85h0c29.74-.01,59.48-.06,89.22.05,3.15.01,4.17-.9,3.93-4.01-.4-5.09-.54-10.2-.69-15.3-.28-9.49.4-18.95.6-28.43.21-10.12.12-20.24.04-30.36-.13-18.23.37-36.46-.29-54.69-.1-2.66-.04-4.84-2.18-6.66-2.75-2.34-5.38-4.82-8.11-7.19-14.59-12.65-29.2-25.27-43.78-37.93-11.76-10.21-23.48-20.45-35.2-30.71-1.58-1.38-2.97-1.49-4.59-.04-2.04,1.82-4.21,3.5-6.31,5.26-8.5,7.11-17.02,14.2-25.49,21.35-10.37,8.76-20.69,17.58-31.06,26.34-8.85,7.47-17.72,14.91-26.62,22.31-1.77,1.48-2.45,3.16-2.48,5.5-.09,7.46-.06,14.92-.02,22.38.18,35.86.19,71.73.1,107.59,0,3.53.79,4.64,4.48,4.62,29.49-.15,58.98-.09,88.47-.09Z"/>
  <path class="cls-1" d="M326.02,182.18c10.55-9.26,17.12-5.97,19.95,1.42,2.7-2.89,5.6-5.32,9.45-6.42,9.34-2.69,14.24,4.25,12.89,12.23-.85,5.02-2.09,9.97-3.16,14.95-.46,2.17-.56,4.22,1.52,5.74,1.57,1.15,1.59,2.85,1.04,4.41-.6,1.72-1.9,2.82-3.89,3.05-5.5.64-8.39-2.1-8.56-8.46-.13-4.78,1.24-9.35,2.4-13.93.4-1.6.68-3.18.61-4.79-.05-1.28.57-2.98-1.23-3.53-1.49-.46-2.9-.06-4.14,1.06-4.88,4.43-6.79,10.32-8.17,16.45-.71,3.15-1.07,6.38-1.72,9.54-.43,2.1-1.46,3.77-3.99,3.61-2.53-.16-4.29-1.4-4.69-3.99-.28-1.84-.09-3.7.26-5.57,1.05-5.61,2.46-11.18,2.67-16.91.06-1.61.78-3.78-1.5-4.53-1.97-.65-3.58.49-5,1.79-5.01,4.58-6.31,10.87-7.77,17.06-.66,2.78-1.11,5.61-1.54,8.43-.49,3.17-2.41,4.12-5.33,3.71-3.13-.44-3.77-2.85-3.48-5.26.91-7.39,2.01-14.77,3.26-22.11.48-2.84.24-5.69.86-8.54.68-3.1,2.11-4.57,5.3-4.53,3.2.04,3.98,2,3.98,5.12Z"/>
  <path class="cls-1" d="M431.21,212.79c-3.13,2.48-5.59,3.9-8.43,4.52-6.77,1.48-11.85-2.56-12.13-9.51-.35-8.81,1.37-17.33,3.62-25.76,1.06-3.98,3.86-5.95,6.71-4.76,3.28,1.36,3.3,4.03,2.6,7.2-1.44,6.54-3.52,12.99-3.28,19.81.05,1.44-.4,3.2,1.29,4.01,1.52.73,2.75-.26,4.11-1.01,5.56-3.08,7.3-8.55,8.91-14.03,1.05-3.57,1.58-7.28,2.42-10.92.25-1.08.65-2.16,1.16-3.13,1.12-2.12,3.13-2.36,5.18-2,2.11.37,3.14,1.84,3.27,3.97.2,3.3-.77,6.43-1.55,9.54-2.75,10.96-3.48,22.38-7.47,33.04-2.51,6.72-6.23,12.53-13.58,14.93-5.29,1.73-9.85.16-13.78-3.4-2.39-2.16-2.55-6.02-.42-8.09,2.41-2.33,4.58-1.43,6.83.62,3.04,2.78,6.47,2.25,8.99-1.1,2.9-3.86,4.1-8.39,5.56-13.92Z"/>
  <path class="cls-1" d="M396.43,153.1c8.72-.01,14.49,5,14.27,12.24-.08,2.64-1.26,4.28-3.7,4.92-2.42.63-3.57-.88-4.55-2.86-2.14-4.29-4-5.15-9.09-4.55-3.55.42-7.14,3.3-8.01,6.44-.98,3.53.51,7.23,4.07,9.65,2.99,2.03,6.09,3.89,9.1,5.9,6.98,4.67,9.38,10.79,7.66,19.37-1.26,6.27-7.64,11.94-14.57,13.37-9.28,1.91-16.37-2.41-18.89-7.15-1.35-2.55-2.6-5.2-.41-8.02,2.45-3.15,5.52-2.69,7.55,1.19,2.97,5.68,8.09,6.99,13.4,3.44,5.05-3.38,5.23-9.93.26-13.45-3.05-2.16-6.33-3.99-9.43-6.08-8.06-5.43-10.7-11.88-8.27-20.02,2.58-8.67,9.81-14.21,18.75-14.37.62-.01,1.25,0,1.87,0Z"/>
  <path class="cls-1" d="M274.91,184.54c.37,3.19-1.52,4.52-4.17,5.31-4,1.2-8.17.52-12.23,1.25-2.14.39-2.93,1.08-3.14,3.24-.58,5.93-1.35,11.84-2.17,17.74-.54,3.93-2.41,5.72-5.29,5.37-2.65-.32-4.36-3.01-3.99-6.59.8-7.78,1.63-15.56,2.57-23.33,1.17-9.61,2.48-19.2,3.7-28.8.48-3.77,2.05-6.23,6.3-6.45,6.83-.35,13.64-.95,20.46-1.42,1.86-.13,3.7-.1,5.57-.48,3.61-.73,6.05.84,6.51,3.85.48,3.16-1.87,6-5.47,6.24-5.84.39-11.69.64-17.53.81-6.09.17-6.1.1-6.96,6.16-.49,3.44-.9,6.89-1.46,10.32-.53,3.26.83,4.47,3.92,3.68,3.2-.82,6.46-.4,9.68-.63,2.76-.2,3.96,1.05,3.7,3.72Z"/>
  <path class="cls-1" d="M272.75,205.42c-.02-13.01,8.06-25.27,17.28-27.87,4.12-1.16,8.23-1.77,12.39.2,4.58,2.17,6.07,4.81,5.28,9.86-.95,6.01-2.46,11.93-2.77,18.04-.09,1.84.04,3.24,2.41,3.9,2.24.63,2.46,3.86.74,5.95-2.36,2.87-7.7,2.86-9.79-.27-1.63-2.45-2.51-3.65-5.35-.9-4.13,4.02-9.8,4.62-14.65,2.08-4.63-2.43-5.48-7.69-5.54-10.98ZM282.41,202.73c.01,2.21-.5,4.81,2.28,5.71,2.63.85,4.88-.33,6.61-2.38.79-.94,1.51-1.96,2.15-3.02,2.5-4.09,3.56-8.71,4.6-13.3.85-3.76-.77-5.08-4.56-3.96-6.06,1.8-11.06,9.45-11.07,16.94Z"/>
  <path class="cls-1" d="M461.13,182.11c2.77-2.72,5.79-4.3,9.25-5.24,6.04-1.64,13.84,1.37,13.79,10.22-.03,5.55-1.69,10.79-2.66,16.17-.5,2.78-1.51,5.84,2.99,6.51,1.28.19,1.98,1.5,1.85,2.91-.17,1.81-.75,3.3-2.65,4.14-6.82,3-12.84-1.69-12.11-9.83.47-5.18,1.56-10.31,2.51-15.44.38-2.07.61-4.14-1.09-5.57-1.89-1.6-3.68.1-5.06,1.06-6.08,4.29-8.56,10.75-10.05,17.7-.6,2.79-1.05,5.62-1.58,8.43-.54,2.85-2.18,4.51-5.15,4.31-3.06-.21-3.86-2.38-3.75-5.02.32-7.48,2.13-14.75,3.33-22.09.39-2.37.1-4.75.61-7.06.59-2.63.8-5.62,4.36-6.19,3.63-.58,4.66,1.94,5.4,4.99Z"/>
  <path class="cls-1" d="M510.89,176.3c2.82-.48,5.71,1.03,8.45,2.82,1.96,1.29,3.28,3.13,2.78,5.68-.35,1.75-1.04,3.28-2.99,3.95-1.93.66-3.29.05-4.71-1.27-3.33-3.11-7.32-3.31-10.63-.27-4.12,3.79-5.82,8.85-5.1,14.23.99,7.38,7.95,9.93,14.35,5.63.72-.49,1.43-1,2.09-1.57,1.91-1.65,4.06-1.82,5.67,0,1.52,1.72,1.35,3.99-.13,5.85-7.39,9.29-23.85,9.47-29.7-2.05-5.83-11.48,1.58-30.03,14.07-32.52,1.75-.35,3.46-.37,5.85-.49Z"/>
  <path class="cls-1" d="M124.59,124.94c4.39-7.35,9.34-13.92,16.67-18.51,16.61-10.41,37.86-1.15,41.42,18.13,2.42,13.09-1.99,24.68-8.36,35.54-8.66,14.76-20.96,26.57-33.05,38.47-4.18,4.11-8.5,8.07-12.78,12.07-3.43,3.21-6.49,3.64-9.96.52-11.05-9.92-21.82-20.15-31.81-31.16-5.96-6.57-11.43-13.53-15.7-21.32-4.83-8.81-8.49-17.93-8.35-28.31.27-19.6,18.16-32.79,36.99-27.05,10.46,3.19,17.84,10.06,23.19,19.36.37.65.74,1.29,1.13,1.93.06.09.21.12.59.33ZM173.01,135.8c.14-16.14-7.28-23.8-18.63-23.23-5.19.26-9.15,2.99-12.79,6.31-5.51,5.03-9.18,11.41-12.93,17.74-2.38,4.01-5.91,3.96-8.51.14-.56-.82-1.06-1.68-1.58-2.54-3.99-6.65-8.15-13.13-14.69-17.67-11.3-7.84-27.97-5.37-30.89,11.25-1.34,7.65,1.18,14.51,4.22,21.22,4.38,9.65,11.2,17.57,18.15,25.46,8.03,9.11,17.41,16.81,25.93,25.4,1.13,1.14,2.34,1.48,3.85.04,12.2-11.59,24.65-22.97,34.8-36.5,7.03-9.36,12.76-19.37,13.07-27.62Z"/>
</svg>