<?xml version="1.0" encoding="UTF-8"?>
<svg xmlns="http://www.w3.org/2000/svg" version="1.1" viewBox="0 0 522.2 239.4">
  <defs>
    <style>
      .cls-1 {
        fill: #f1f4ff;
      }
    </style>
  </defs>
  <!-- Generator: Adobe Illustrator 28.7.1, SVG Export Plug-In . SVG Version: 1.2.0 Build 142)  -->
  <g>
    <g id="Layer_1">
      <path class="cls-1" d="M123,239.3H28.1c-5.8,0-8.1-2.2-8-8.2,0-9.7.7-19.5.5-29.2-.6-32.3-.3-64.6-.4-96.9,0-1.2.6-2.8-.7-3.4-1.6-.8-2.4,1-3.3,1.8-2.3,1.9-4.5,4-6.8,5.9-2.8,2.4-5.6,2.4-7.6,0-2.4-2.8-2.3-5.6.7-8.1,11-9.5,22.1-19,33.2-28.4,10.9-9.3,21.9-18.5,32.8-27.7,14.7-12.3,29.4-24.6,44.2-36.9,2.4-2,4.7-4.1,7.1-6.1,2.9-2.6,6.5-2.8,9.4-.2,13.6,11.7,27.1,23.5,40.7,35.2,13.6,11.8,27.4,23.5,41,35.3,10.8,9.4,21.6,18.9,32.4,28.3,1.4,1.2,2.6,2.6,2.6,4.8,0,2.2-.5,3.9-2.6,5-2.1,1-4,.9-5.9-.7-2.8-2.4-5.7-4.8-8.6-7.2-.6-.4-1-1.3-1.9-.9-.9.3-.7,1.3-.6,2,.3,11.5-.7,23,.6,34.4.5,4.3-.6,8.4-.6,12.7,0,16-.1,32-.1,48,0,10.7.1,21.4.1,32.1,0,6.7-1.7,8.4-8.4,8.4h-94.8c0,0,0,0,0,0ZM123.3,228.9h0c29.7,0,59.5,0,89.2,0,3.1,0,4.2-.9,3.9-4-.4-5.1-.5-10.2-.7-15.3-.3-9.5.4-18.9.6-28.4.2-10.1.1-20.2,0-30.4-.1-18.2.4-36.5-.3-54.7-.1-2.7,0-4.8-2.2-6.7-2.8-2.3-5.4-4.8-8.1-7.2-14.6-12.7-29.2-25.3-43.8-37.9-11.8-10.2-23.5-20.5-35.2-30.7-1.6-1.4-3-1.5-4.6,0-2,1.8-4.2,3.5-6.3,5.3-8.5,7.1-17,14.2-25.5,21.3-10.4,8.8-20.7,17.6-31.1,26.3-8.8,7.5-17.7,14.9-26.6,22.3-1.8,1.5-2.5,3.2-2.5,5.5,0,7.5,0,14.9,0,22.4.2,35.9.2,71.7.1,107.6,0,3.5.8,4.6,4.5,4.6,29.5-.1,59,0,88.5,0h0Z"/>
      <path class="cls-1" d="M326,182.2c10.5-9.3,17.1-6,20,1.4,2.7-2.9,5.6-5.3,9.5-6.4,9.3-2.7,14.2,4.2,12.9,12.2-.9,5-2.1,10-3.2,14.9-.5,2.2-.6,4.2,1.5,5.7,1.6,1.1,1.6,2.9,1,4.4-.6,1.7-1.9,2.8-3.9,3.1-5.5.6-8.4-2.1-8.6-8.5-.1-4.8,1.2-9.4,2.4-13.9.4-1.6.7-3.2.6-4.8,0-1.3.6-3-1.2-3.5-1.5-.5-2.9,0-4.1,1.1-4.9,4.4-6.8,10.3-8.2,16.4-.7,3.1-1.1,6.4-1.7,9.5-.4,2.1-1.5,3.8-4,3.6s-4.3-1.4-4.7-4c-.3-1.8,0-3.7.3-5.6,1-5.6,2.5-11.2,2.7-16.9,0-1.6.8-3.8-1.5-4.5-2-.6-3.6.5-5,1.8-5,4.6-6.3,10.9-7.8,17.1-.7,2.8-1.1,5.6-1.5,8.4-.5,3.2-2.4,4.1-5.3,3.7-3.1-.4-3.8-2.9-3.5-5.3.9-7.4,2-14.8,3.3-22.1.5-2.8.2-5.7.9-8.5.7-3.1,2.1-4.6,5.3-4.5,3.2,0,4,2,4,5.1h0Z"/>
      <path class="cls-1" d="M431.2,212.8c-3.1,2.5-5.6,3.9-8.4,4.5-6.8,1.5-11.9-2.6-12.1-9.5-.4-8.8,1.4-17.3,3.6-25.8,1.1-4,3.9-5.9,6.7-4.8,3.3,1.4,3.3,4,2.6,7.2-1.4,6.5-3.5,13-3.3,19.8,0,1.4-.4,3.2,1.3,4,1.5.7,2.8-.3,4.1-1,5.6-3.1,7.3-8.6,8.9-14,1-3.6,1.6-7.3,2.4-10.9.2-1.1.6-2.2,1.2-3.1,1.1-2.1,3.1-2.4,5.2-2,2.1.4,3.1,1.8,3.3,4,.2,3.3-.8,6.4-1.5,9.5-2.8,11-3.5,22.4-7.5,33-2.5,6.7-6.2,12.5-13.6,14.9-5.3,1.7-9.9.2-13.8-3.4-2.4-2.2-2.5-6-.4-8.1,2.4-2.3,4.6-1.4,6.8.6,3,2.8,6.5,2.2,9-1.1,2.9-3.9,4.1-8.4,5.6-13.9h0Z"/>
      <path class="cls-1" d="M396.4,153.1c8.7,0,14.5,5,14.3,12.2,0,2.6-1.3,4.3-3.7,4.9-2.4.6-3.6-.9-4.5-2.9-2.1-4.3-4-5.1-9.1-4.6-3.5.4-7.1,3.3-8,6.4-1,3.5.5,7.2,4.1,9.6,3,2,6.1,3.9,9.1,5.9,7,4.7,9.4,10.8,7.7,19.4-1.3,6.3-7.6,11.9-14.6,13.4-9.3,1.9-16.4-2.4-18.9-7.1-1.4-2.6-2.6-5.2-.4-8,2.5-3.1,5.5-2.7,7.5,1.2,3,5.7,8.1,7,13.4,3.4,5-3.4,5.2-9.9.3-13.4-3-2.2-6.3-4-9.4-6.1-8.1-5.4-10.7-11.9-8.3-20,2.6-8.7,9.8-14.2,18.8-14.4.6,0,1.2,0,1.9,0h0Z"/>
      <path class="cls-1" d="M274.9,184.5c.4,3.2-1.5,4.5-4.2,5.3-4,1.2-8.2.5-12.2,1.2-2.1.4-2.9,1.1-3.1,3.2-.6,5.9-1.4,11.8-2.2,17.7-.5,3.9-2.4,5.7-5.3,5.4-2.6-.3-4.4-3-4-6.6.8-7.8,1.6-15.6,2.6-23.3,1.2-9.6,2.5-19.2,3.7-28.8.5-3.8,2.1-6.2,6.3-6.4,6.8-.4,13.6-.9,20.5-1.4,1.9-.1,3.7-.1,5.6-.5,3.6-.7,6,.8,6.5,3.9.5,3.2-1.9,6-5.5,6.2-5.8.4-11.7.6-17.5.8-6.1.2-6.1.1-7,6.2-.5,3.4-.9,6.9-1.5,10.3-.5,3.3.8,4.5,3.9,3.7,3.2-.8,6.5-.4,9.7-.6,2.8-.2,4,1.1,3.7,3.7h0Z"/>
      <path class="cls-1" d="M272.8,205.4c0-13,8.1-25.3,17.3-27.9,4.1-1.2,8.2-1.8,12.4.2,4.6,2.2,6.1,4.8,5.3,9.9-1,6-2.5,11.9-2.8,18,0,1.8,0,3.2,2.4,3.9,2.2.6,2.5,3.9.7,5.9-2.4,2.9-7.7,2.9-9.8-.3-1.6-2.4-2.5-3.6-5.4-.9-4.1,4-9.8,4.6-14.6,2.1-4.6-2.4-5.5-7.7-5.5-11h0ZM282.4,202.7c0,2.2-.5,4.8,2.3,5.7,2.6.9,4.9-.3,6.6-2.4.8-.9,1.5-2,2.1-3,2.5-4.1,3.6-8.7,4.6-13.3.9-3.8-.8-5.1-4.6-4-6.1,1.8-11.1,9.4-11.1,16.9h0Z"/>
      <path class="cls-1" d="M461.1,182.1c2.8-2.7,5.8-4.3,9.2-5.2,6-1.6,13.8,1.4,13.8,10.2,0,5.6-1.7,10.8-2.7,16.2-.5,2.8-1.5,5.8,3,6.5,1.3.2,2,1.5,1.9,2.9-.2,1.8-.8,3.3-2.6,4.1-6.8,3-12.8-1.7-12.1-9.8.5-5.2,1.6-10.3,2.5-15.4.4-2.1.6-4.1-1.1-5.6-1.9-1.6-3.7.1-5.1,1.1-6.1,4.3-8.6,10.8-10,17.7-.6,2.8-1,5.6-1.6,8.4-.5,2.9-2.2,4.5-5.1,4.3-3.1-.2-3.9-2.4-3.8-5,.3-7.5,2.1-14.8,3.3-22.1.4-2.4.1-4.8.6-7.1.6-2.6.8-5.6,4.4-6.2,3.6-.6,4.7,1.9,5.4,5h0Z"/>
      <path class="cls-1" d="M510.9,176.3c2.8-.5,5.7,1,8.5,2.8,2,1.3,3.3,3.1,2.8,5.7-.3,1.8-1,3.3-3,3.9-1.9.7-3.3,0-4.7-1.3-3.3-3.1-7.3-3.3-10.6-.3-4.1,3.8-5.8,8.9-5.1,14.2,1,7.4,8,9.9,14.4,5.6.7-.5,1.4-1,2.1-1.6,1.9-1.6,4.1-1.8,5.7,0,1.5,1.7,1.3,4-.1,5.9-7.4,9.3-23.9,9.5-29.7-2.1-5.8-11.5,1.6-30,14.1-32.5,1.8-.4,3.5-.4,5.9-.5h0Z"/>
      <path class="cls-1" d="M124.6,124.9c4.4-7.3,9.3-13.9,16.7-18.5,16.6-10.4,37.9-1.2,41.4,18.1,2.4,13.1-2,24.7-8.4,35.5-8.7,14.8-21,26.6-33.1,38.5-4.2,4.1-8.5,8.1-12.8,12.1-3.4,3.2-6.5,3.6-10,.5-11.1-9.9-21.8-20.1-31.8-31.2-6-6.6-11.4-13.5-15.7-21.3-4.8-8.8-8.5-17.9-8.3-28.3.3-19.6,18.2-32.8,37-27.1,10.5,3.2,17.8,10.1,23.2,19.4.4.7.7,1.3,1.1,1.9,0,0,.2.1.6.3h0ZM173,135.8c.1-16.1-7.3-23.8-18.6-23.2-5.2.3-9.1,3-12.8,6.3-5.5,5-9.2,11.4-12.9,17.7-2.4,4-5.9,4-8.5.1-.6-.8-1.1-1.7-1.6-2.5-4-6.7-8.2-13.1-14.7-17.7-11.3-7.8-28-5.4-30.9,11.2-1.3,7.6,1.2,14.5,4.2,21.2,4.4,9.6,11.2,17.6,18.2,25.5,8,9.1,17.4,16.8,25.9,25.4,1.1,1.1,2.3,1.5,3.8,0,12.2-11.6,24.6-23,34.8-36.5,7-9.4,12.8-19.4,13.1-27.6h0Z"/>
    </g>
  </g>
</svg>