<svg width="25" height="14" viewBox="0 0 25 14" fill="none" xmlns="http://www.w3.org/2000/svg">
<path d="M24.449 12.6493C24.2815 13.0453 23.9669 13.175 23.5272 13.1744C15.9903 13.1676 8.45329 13.1699 0.916318 13.1693C0.398898 13.1693 0.141684 13.026 0.030424 12.6787C-0.0922014 12.298 0.168602 11.8936 0.583734 11.8312C0.700975 11.8137 0.821806 11.8125 0.940843 11.8125C2.85918 11.8114 4.77692 11.8086 6.69526 11.8165C6.89266 11.8171 6.96324 11.765 7.00213 11.5797C7.58475 8.7959 10.255 7.06069 13.2076 7.53882C15.279 7.87419 17.0777 9.55898 17.4283 11.5117C17.4719 11.7553 17.5647 11.8193 17.8213 11.8176C19.7235 11.8063 21.6257 11.8176 23.5278 11.8063C23.9681 11.8035 24.2827 11.936 24.4496 12.332V12.6487L24.449 12.6493ZM16.0166 11.7973C15.818 10.4246 14.3919 8.78343 12.159 8.81119C10.3202 8.83385 8.53405 10.2739 8.43475 11.7973H16.0166Z" fill="#313C66"/>
<path d="M4.23737 8.82989C4.10518 8.78343 3.96341 8.75341 3.84258 8.68883C3.20552 8.34836 2.57206 8.00335 1.94159 7.65212C1.55098 7.43458 1.43134 7.04652 1.63353 6.70605C1.83332 6.37068 2.26101 6.26701 2.64803 6.47492C3.29824 6.82332 3.94487 7.17795 4.5885 7.53768C4.89895 7.71104 5.02457 8.01072 4.93544 8.30757C4.84691 8.60215 4.56637 8.80439 4.23737 8.82989Z" fill="#313C66"/>
<path d="M20.1942 8.82875C19.885 8.80043 19.6164 8.61292 19.5195 8.33986C19.4226 8.0668 19.5033 7.74956 19.7677 7.59773C20.4742 7.19211 21.1884 6.79726 21.914 6.42393C22.237 6.25794 22.6425 6.41373 22.8154 6.71568C22.9997 7.03746 22.8998 7.42098 22.5528 7.62153C22.0641 7.90365 21.564 8.16707 21.0688 8.43843C20.9102 8.52511 20.7559 8.61971 20.592 8.69449C20.4658 8.75228 20.327 8.78457 20.1942 8.82875Z" fill="#313C66"/>
<path d="M11.5058 2.67535C11.5058 2.32922 11.5022 1.98251 11.5064 1.63638C11.5123 1.2132 11.8096 0.91748 12.2218 0.91748C12.6339 0.91748 12.9348 1.21263 12.9372 1.63525C12.942 2.33545 12.9426 3.03622 12.9372 3.73642C12.9336 4.1511 12.6148 4.45645 12.211 4.44852C11.8126 4.44059 11.5141 4.14317 11.5076 3.73755C11.5016 3.38349 11.5064 3.02942 11.5064 2.67592L11.5058 2.67535Z" fill="#313C66"/>
<path d="M5.734 3.04755C5.76092 2.74333 5.9649 2.48784 6.26757 2.40173C6.56367 2.31732 6.88309 2.41816 7.06015 2.67932C7.25695 2.9705 7.43161 3.27528 7.61465 3.5744C7.81385 3.90014 8.01603 4.22362 8.20924 4.55219C8.42937 4.92609 8.33246 5.32547 7.98373 5.51752C7.62781 5.71353 7.2079 5.60816 6.9794 5.24276C6.59836 4.6349 6.22869 4.02024 5.86261 3.40388C5.7986 3.29624 5.77647 3.16651 5.7346 3.04641L5.734 3.04755Z" fill="#313C66"/>
<path d="M17.8727 2.3768C18.4966 2.38247 18.8615 2.88666 18.6216 3.31834C18.2448 3.99701 17.8326 4.65869 17.4097 5.31301C17.201 5.63592 16.7715 5.70107 16.4443 5.50845C16.129 5.32321 16.0106 4.94195 16.2014 4.61734C16.5795 3.97322 16.9737 3.33703 17.3679 2.70141C17.5024 2.48501 17.7154 2.37794 17.8721 2.37737L17.8727 2.3768Z" fill="#313C66"/>
</svg>
