<svg width="25" height="13" viewBox="0 0 25 13" fill="none" xmlns="http://www.w3.org/2000/svg">
<path d="M24.5052 11.9889C24.3377 12.3849 24.0231 12.5146 23.5835 12.514C16.0465 12.5072 8.50951 12.5095 0.972531 12.5089C0.455112 12.5089 0.197897 12.3656 0.0866374 12.0183C-0.035988 11.6376 0.224815 11.2332 0.639947 11.1708C0.757189 11.1533 0.87802 11.1521 0.997056 11.1521C2.9154 11.151 4.83314 11.1482 6.75148 11.1561C6.94887 11.1567 7.01946 11.1046 7.05834 10.9193C7.64096 8.1355 10.3112 6.40029 13.2638 6.87842C15.3353 7.21379 17.134 8.89858 17.4845 10.8513C17.5282 11.0949 17.6209 11.1589 17.8775 11.1572C19.7797 11.1459 21.6819 11.1572 23.5841 11.1459C24.0243 11.1431 24.3389 11.2756 24.5058 11.6716V11.9883L24.5052 11.9889ZM16.0728 11.1369C15.8742 9.76421 14.4482 8.12303 12.2152 8.15079C10.3764 8.17345 8.59026 9.61352 8.49096 11.1369H16.0728Z" fill="#EFF1F9"/>
<path d="M4.29359 8.16949C4.16139 8.12303 4.01962 8.09301 3.89879 8.02843C3.26174 7.68796 2.62827 7.34295 1.9978 6.99172C1.60719 6.77418 1.48756 6.38612 1.68974 6.04565C1.88953 5.71028 2.31722 5.60661 2.70424 5.81452C3.35445 6.16292 4.00108 6.51755 4.64471 6.87728C4.95516 7.05064 5.08078 7.35032 4.99165 7.64717C4.90312 7.94175 4.62258 8.14399 4.29359 8.16949Z" fill="#EFF1F9"/>
<path d="M20.2504 8.16835C19.9412 8.14003 19.6726 7.95252 19.5757 7.67946C19.4788 7.4064 19.5595 7.08916 19.8239 6.93733C20.5304 6.53172 21.2446 6.13686 21.9702 5.76353C22.2932 5.59754 22.6988 5.75333 22.8716 6.05528C23.0559 6.37706 22.956 6.76058 22.609 6.96113C22.1203 7.24325 21.6203 7.50667 21.125 7.77803C20.9665 7.86471 20.8121 7.95931 20.6482 8.03409C20.522 8.09188 20.3832 8.12417 20.2504 8.16835Z" fill="#EFF1F9"/>
<path d="M11.562 2.01495C11.562 1.66882 11.5584 1.32211 11.5626 0.975978C11.5686 0.552797 11.8659 0.25708 12.278 0.25708C12.6901 0.25708 12.991 0.55223 12.9934 0.974845C12.9982 1.67505 12.9988 2.37582 12.9934 3.07602C12.9898 3.4907 12.671 3.79605 12.2672 3.78812C11.8688 3.78019 11.5704 3.48277 11.5638 3.07715C11.5578 2.72309 11.5626 2.36902 11.5626 2.01552L11.562 2.01495Z" fill="#EFF1F9"/>
<path d="M5.79021 2.38715C5.81713 2.08293 6.02111 1.82744 6.32378 1.74133C6.61988 1.65692 6.9393 1.75776 7.11636 2.01892C7.31316 2.3101 7.48783 2.61488 7.67087 2.914C7.87006 3.23974 8.07224 3.56322 8.26545 3.89179C8.48558 4.26569 8.38867 4.66507 8.03994 4.85712C7.68403 5.05313 7.26411 4.94776 7.03561 4.58236C6.65457 3.9745 6.2849 3.35984 5.91882 2.74348C5.85482 2.63584 5.83268 2.50611 5.79081 2.38601L5.79021 2.38715Z" fill="#EFF1F9"/>
<path d="M17.9289 1.7164C18.5528 1.72207 18.9177 2.22626 18.6778 2.65794C18.301 3.33661 17.8889 3.99829 17.4659 4.65261C17.2572 4.97552 16.8277 5.04067 16.5005 4.84805C16.1853 4.66281 16.0668 4.28155 16.2576 3.95694C16.6357 3.31282 17.0299 2.67663 17.4241 2.04101C17.5587 1.82461 17.7716 1.71754 17.9283 1.71697L17.9289 1.7164Z" fill="#EFF1F9"/>
</svg>
